<svg width="670" height="642" viewBox="0 0 670 642" fill="none" xmlns="http://www.w3.org/2000/svg">
<path fill-rule="evenodd" clip-rule="evenodd" d="M357.531 0.0580492C413.917 2.05361 459.139 45.0576 499.341 84.6446C534.604 119.368 546.735 167.376 571.16 210.417C604.093 268.451 681.971 315.376 667.203 380.448C652.72 444.264 558.53 445.405 508.309 487.358C452.206 534.225 429.422 625.884 357.531 639.14C284.955 652.523 217.987 597.345 160.103 551.566C104.239 507.385 60.4846 451.162 35.5077 384.462C9.61198 315.307 -19.0283 233.666 16.9033 169.153C52.4066 105.41 142.881 106.785 208.235 74.342C259.272 49.0062 300.587 -1.95726 357.531 0.0580492Z" fill="#F7F7F7"/>
</svg>
